<svg width="231" height="351" viewBox="0 0 231 351" fill="none" xmlns="http://www.w3.org/2000/svg">
<path d="M70.6732 46.0643L151.891 7.59415C152.507 7.30246 153.168 7.21742 153.791 6.9784C147.01 4.30056 139.381 4.38966 132.632 7.59415L51.4098 46.0643C39.6735 51.6347 32.2192 63.4561 32.2192 76.3956V277.136H51.4786V76.3956C51.4786 63.4561 58.9328 51.6347 70.6732 46.0643Z" fill="white"/>
<path d="M161.075 224.357C169.729 222.729 177.183 216.988 180.955 208.934L223.962 116.92C226.62 111.264 226.535 104.754 223.792 99.1836L211.541 74.8521C207.514 66.7983 199.375 61.6573 190.378 61.6573H187.724L192.091 48.892C194.919 40.6681 191.836 31.5002 184.552 26.6996L158.847 9.48201C157.255 8.4125 155.533 7.66308 153.791 6.97842C153.167 7.21745 152.507 7.30249 151.891 7.59417L70.6731 46.0643C58.9327 51.6347 51.4785 63.4561 51.4785 76.3956V277.136H153.107H153.281V225.816L161.075 224.357" fill="#FFCC99"/>
<path d="M31.2594 335.482V292.215C31.2594 283.902 38.0289 277.136 46.3379 277.136H32.2195H27.0785C18.7695 277.136 12 283.902 12 292.215V335.482C12 343.791 18.7695 350.56 27.0785 350.56H46.3379C38.0289 350.56 31.2594 343.791 31.2594 335.482Z" fill="white"/>
<path d="M153.107 277.136H32.2192V76.3956C32.2192 63.4561 39.6735 51.6347 51.4098 46.0643L132.632 7.5942C141.115 3.56731 151.053 4.25195 158.847 9.48204L184.552 26.6996C191.836 31.5003 194.919 40.6681 192.091 48.8921L187.724 61.6574L170.673 111.434L161.764 137.479C158.592 146.647 149.939 152.817 140.256 152.817H96.9897C90.3944 152.817 84.9942 147.421 84.9942 140.737V139.023C84.9942 123.689 97.4191 111.264 112.757 111.264H118.668" stroke="#231F20" stroke-width="9" stroke-miterlimit="10"/>
<path d="M187.635 61.6574H190.378C199.376 61.6574 207.515 66.7984 211.541 74.8521L223.792 99.1836C226.535 104.754 226.62 111.264 223.962 116.92L180.955 208.934C177.183 216.988 169.729 222.729 161.076 224.357L153.281 225.816V277.136" stroke="#231F20" stroke-width="9" stroke-miterlimit="10"/>
<path d="M170.673 111.435H190.977" stroke="#231F20" stroke-width="9" stroke-miterlimit="10"/>
<path d="M88.7661 149.649L104.444 164.813C111.898 172.008 116.095 181.86 116.095 192.142V211.937" stroke="#231F20" stroke-width="9" stroke-miterlimit="10"/>
<rect x="4" y="275" width="169" height="72" rx="16" fill="white" stroke="#231F20" stroke-width="8"/>
<rect x="24" y="279" width="145" height="64" rx="10" fill="#66CC99"/>
</svg>
