<svg width="69" height="77" viewBox="0 0 69 77" fill="none" xmlns="http://www.w3.org/2000/svg">
<rect y="8.24902" width="68.0414" height="68.0414" rx="34.0207" fill="#9C27B0"/>
<path d="M28.8764 11.4974L47.3077 2.57033C47.4977 2.47843 47.6932 2.40444 47.8887 2.33513C46.4744 1.82732 44.8902 1.89975 43.4984 2.57033L25.0671 11.4974C23.2882 12.3705 22.1519 14.1829 22.1519 16.1588V49.0034H25.9612V16.1588C25.9612 14.1829 27.0975 12.3705 28.8764 11.4974Z" fill="white"/>
<path d="M63.0007 25.7947V21.117C63.0007 19.6185 62.1938 18.2181 60.9087 17.4439L56.132 14.6105V10.0644C56.132 8.54955 55.3906 7.14919 54.1226 6.3096L49.1154 2.94889C48.7291 2.68954 48.3163 2.48859 47.8888 2.33516C47.6933 2.40447 47.4978 2.47846 47.3077 2.57036L28.8764 11.4975C27.0975 12.3706 25.9612 14.1829 25.9612 16.1588V49.0034H45.3926H45.4261V39.1371H49.2354H49.247L60.8433 30.1765C62.1938 29.1219 63.0007 27.5081 63.0007 25.7947" fill="#FFCC99"/>
<path d="M22.0738 60.2203V51.9023C22.0738 50.3041 23.3744 49.0034 24.9726 49.0034H22.1517H21.1633C19.5651 49.0034 18.2637 50.3041 18.2637 51.9023V60.2203C18.2637 61.8177 19.5651 63.1192 21.1633 63.1192H24.9726C23.3744 63.1192 22.0738 61.8177 22.0738 60.2203Z" fill="white"/>
<path d="M45.3925 49.0034H22.1519V16.1589C22.1519 14.1829 23.2882 12.3706 25.0671 11.4975L43.4984 2.57037C45.31 1.69729 47.4518 1.82892 49.1154 2.9489L54.1226 6.30961C55.3905 7.1492 56.132 8.54956 56.132 10.0644V14.6105V21.4301C56.132 23.2416 55.1273 24.8889 53.5127 25.6958L42.6915 31.1975C41.1759 31.9717 39.3806 31.9055 37.9312 31.0496L31.1779 27.0299C29.8273 26.2394 29.0033 24.79 29.0033 23.2253C29.0033 22.1053 29.4652 21.1006 30.1895 20.3591C30.9146 19.6348 31.9357 19.1901 33.0393 19.1901H36.0043" stroke="#231F20" stroke-width="2.09001" stroke-miterlimit="10"/>
<path d="M33.8953 39.1372H49.247L60.8432 30.1766C62.1938 29.1221 63.0006 27.5083 63.0006 25.7949V21.1171C63.0006 19.6186 62.1937 18.2183 60.9087 17.4441L56.132 14.6107" stroke="#231F20" stroke-width="2.09001" stroke-miterlimit="10"/>
<path d="M45.426 49.0034V39.1371" stroke="#231F20" stroke-width="2.09001" stroke-miterlimit="10"/>
<path d="M36.0044 14.6107V23.5877" stroke="#231F20" stroke-width="2.09001" stroke-miterlimit="10"/>
<rect x="16.566" y="48.3646" width="32.8101" height="14.1618" rx="3.71557" fill="white" stroke="#231F20" stroke-width="1.85779"/>
<rect x="20.5708" y="49.2933" width="27.8763" height="12.304" rx="2.32223" fill="#66CC99"/>
</svg>
