<svg width="69" height="94" viewBox="0 0 69 94" fill="none" xmlns="http://www.w3.org/2000/svg">
<rect y="25.4546" width="68.0414" height="68.0414" rx="34.0207" fill="#9C27B0"/>
<path d="M51.6591 7.46951C52.9438 8.0295 53.6851 9.4135 53.405 10.7967L48.0518 38.3538V38.3701L41.6444 34.9931C40.755 34.5156 39.6679 34.8451 39.1737 35.7182L38.5807 36.7719C38.3831 37.1185 38.2678 37.497 38.2184 37.8592L35.7147 37.909C35.7147 37.6286 35.6818 37.3327 35.5994 37.036L32.5028 25.2591L28.5332 5.85574C28.4838 5.64156 28.4673 5.42738 28.4673 5.2132C28.4673 3.82919 29.3567 2.5776 30.7074 2.14924C32.4864 1.58925 34.3641 2.66015 34.7923 4.47174L41.4468 30.6783L47.5577 9.44621C47.9201 8.09569 49.1554 7.22261 50.4731 7.22261C50.8685 7.22261 51.2637 7.30518 51.6591 7.46951" fill="#FFCC99"/>
<path d="M23.2295 36.5412V32.7201C23.2295 31.3034 24.119 30.0355 25.4531 29.5573L32.9285 26.8773L32.5029 25.2588L20.5118 29.5573C19.1775 30.0355 18.2881 31.3034 18.2881 32.7201V36.5412L23.6743 53.3587V66.0585H28.6156V53.3587L23.2295 36.5412" fill="white"/>
<path d="M47.673 53.3587L51.9556 45.3211C53.0756 43.2291 52.285 40.6098 50.1767 39.4898L48.0519 38.3699L41.6445 34.9928C40.7551 34.5154 39.668 34.8448 39.1738 35.7179L38.5808 36.7717C38.3831 37.1183 38.2679 37.4968 38.2185 37.859L35.7148 37.9088C35.7148 37.6284 35.6819 37.3325 35.5995 37.0357L32.9285 26.8773L25.4531 29.5573C24.1189 30.0355 23.2295 31.3034 23.2295 32.7201V36.5411L28.6156 53.3587V66.0585H43.4399V58.3005L47.673 53.3587" fill="#FFCC99"/>
<path d="M22.9659 77.292V68.9576C22.9659 67.3595 24.2671 66.0588 25.8648 66.0588H23.6741H20.9234C19.3257 66.0588 18.0244 67.3595 18.0244 68.9576V77.292C18.0244 78.8894 19.3257 80.1745 20.9234 80.1745H25.8648C24.2671 80.1745 22.9659 78.8894 22.9659 77.292Z" fill="white"/>
<path d="M41.4468 30.6782L34.7923 4.47166C34.3641 2.66007 32.4864 1.58917 30.7074 2.14916C29.3567 2.57752 28.4673 3.82911 28.4673 5.21312C28.4673 5.4273 28.4838 5.64148 28.5332 5.85566L32.5028 25.259" stroke="#231F20" stroke-width="2.09001" stroke-miterlimit="10"/>
<path d="M48.0518 38.3536L53.405 10.7966C53.6851 9.41338 52.9438 8.02938 51.6591 7.46939C51.2637 7.30505 50.8684 7.22249 50.4731 7.22249C49.1554 7.22249 47.9201 8.09557 47.5577 9.44609L41.4468 30.6781" stroke="#231F20" stroke-width="2.09001" stroke-miterlimit="10"/>
<path d="M44.3129 44.4145L41.8092 42.504L39.3714 40.6262C38.4985 39.9673 38.0867 38.8972 38.2185 37.859C38.2679 37.4968 38.3832 37.1183 38.5808 36.7717L39.1739 35.7179C39.668 34.8448 40.7551 34.5154 41.6445 34.9928L48.052 38.3699L50.1767 39.4898C52.2851 40.6098 53.0757 43.2291 51.9557 45.3211L47.6731 53.3587L43.44 58.3005V66.0585H23.6743V53.3587L18.2881 36.5412V32.7201C18.2881 31.3034 19.1775 30.0355 20.5118 29.5573L32.5029 25.2588L35.5995 37.0357C35.6819 37.3325 35.7149 37.6284 35.7149 37.9088C35.7149 39.5389 34.5619 41.0055 32.8817 41.3014L28.2369 42.1418C26.6062 42.4385 25.0084 41.4993 24.4814 39.9509L22.9165 35.4874" stroke="#231F20" stroke-width="2.09001" stroke-miterlimit="10"/>
<path d="M41.8092 42.504L34.6936 50.8057" stroke="#231F20" stroke-width="2.09001" stroke-miterlimit="10"/>
<rect x="16.1661" y="65.7689" width="32.8101" height="14.1618" rx="3.71557" fill="white" stroke="#231F20" stroke-width="1.85779"/>
<rect x="20.1709" y="66.6979" width="27.8763" height="12.304" rx="2.32223" fill="#66CC99"/>
</svg>
