<svg width="69" height="93" viewBox="0 0 69 93" fill="none" xmlns="http://www.w3.org/2000/svg">
<rect y="24.6855" width="68.0414" height="68.0414" rx="34.0207" fill="#9C27B0"/>
<path d="M23.0271 77.3793V69.0777C23.0271 68.2225 23.3988 67.4623 23.9799 66.9304H21.7522C20.1545 66.9304 18.8533 68.2311 18.8533 69.8456V78.1473C18.8533 79.7611 20.1545 81.0625 21.7522 81.0625H47.0028C47.754 81.0625 48.4333 80.7673 48.9489 80.2953H25.9263C24.3283 80.2953 23.0271 78.9939 23.0271 77.3793Z" fill="white"/>
<path d="M52.3794 10.9506C52.4637 10.6172 52.6033 10.315 52.7802 10.0448C52.6156 9.92717 52.4644 9.79321 52.2739 9.70909C51.8785 9.54398 51.4832 9.46142 51.0879 9.46142C49.7702 9.46142 48.5513 10.3509 48.2054 11.7185L46.8513 17.2132L46.9603 32.9404L52.3794 10.9506Z" fill="#FFCC99"/>
<path d="M57.4194 30.8647C57.4913 30.7455 57.5873 30.6568 57.6704 30.5508C57.1611 30.2393 56.5913 30.0672 56.0127 30.0672C55.531 30.0672 55.0549 30.1895 54.6137 30.4013L53.137 37.9312L57.4194 30.8647Z" fill="#FFCC99"/>
<path d="M29.171 10.3249C29.171 10.2424 29.1546 10.1598 29.1546 10.0944C29.1546 9.48067 29.3656 8.91834 29.6943 8.43858C29.0094 7.95725 28.132 7.75553 27.2538 7.97906C25.9196 8.30851 24.9807 9.49469 24.9807 10.8616C24.9807 10.9278 24.9972 11.0095 24.9972 11.0921L25.7944 22.0909L30.95 34.8671L29.171 10.3249Z" fill="#FFCC99"/>
<path d="M40.3386 4.29606C40.3719 3.60367 40.628 2.9767 41.0269 2.46812C40.5432 2.17683 39.9822 2.00003 39.3766 2.00003C37.6471 2.00003 36.2469 3.35055 36.1646 5.064L35.7798 13.5643L39.0537 32.6763L40.3386 4.29606Z" fill="#FFCC99"/>
<path d="M28.6604 53.4636L19.4695 21.9041C19.387 21.6245 19.3542 21.3605 19.3542 21.0809C19.3542 20.5302 19.5159 19.996 19.805 19.5364C18.958 18.9095 17.8053 18.7537 16.778 19.2623C15.7732 19.7561 15.1802 20.7771 15.1802 21.848C15.1802 22.1284 15.2131 22.3917 15.2955 22.6721L24.4866 54.2308V66.9306H44.2522V66.1627H28.6604V53.4636Z" fill="white"/>
<path d="M48.5018 54.2307L58.8459 34.811C59.4224 33.7401 59.34 32.4231 58.6318 31.4348C58.3656 31.0523 58.0311 30.7712 57.6705 30.5508C57.5875 30.6567 57.4915 30.7455 57.4196 30.8646L53.1371 37.9311L54.6139 30.4012C54.0745 30.6606 53.59 31.0609 53.2456 31.6318L48.9631 38.6982L54.0033 13.0027C54.2272 11.8414 53.7106 10.7113 52.7802 10.0446C52.6033 10.3149 52.4637 10.6171 52.3794 10.9504L46.9603 32.9403L46.8513 17.2131L42.7863 33.7074L42.5886 5.17917C42.5777 4.02259 41.9511 3.02412 41.0271 2.46802C40.6282 2.97661 40.3721 3.60358 40.3388 4.29597L39.0538 32.6762L35.78 13.5642L34.88 33.4442L30.9269 10.3678C30.7854 9.55004 30.3197 8.87868 29.6943 8.43863C29.3656 8.9184 29.1546 9.48073 29.1546 10.0945C29.1546 10.1599 29.171 10.2424 29.171 10.325L30.95 34.8671L25.7944 22.091L26.7761 35.6343L20.7805 20.7771C20.569 20.2568 20.2209 19.844 19.805 19.5364C19.5159 19.9959 19.3542 20.5302 19.3542 21.0808C19.3542 21.3604 19.387 21.6245 19.4695 21.9041L28.6604 53.4636V66.1626H44.2522V59.1725L48.5018 54.2307Z" fill="#FFCC99"/>
<path d="M34.88 33.4442L30.9269 10.3678C30.6304 8.65437 28.9339 7.55075 27.2538 7.97911C25.9196 8.30856 24.9807 9.49474 24.9807 10.8616C24.9807 10.9278 24.9972 11.0096 24.9972 11.0921L26.7761 35.6343" stroke="#231F20" stroke-width="2.09001" stroke-miterlimit="10"/>
<path d="M42.7862 33.7076L42.5885 5.17933C42.5721 3.41681 41.1391 2.00009 39.3766 2.00009C37.6471 2.00009 36.247 3.35061 36.1647 5.06407L34.8799 33.4443" stroke="#231F20" stroke-width="2.09001" stroke-miterlimit="10"/>
<path d="M48.9629 38.6983L54.0032 13.0027C54.2667 11.6358 53.542 10.269 52.2737 9.70898C51.8784 9.54387 51.483 9.4613 51.0877 9.4613C49.77 9.4613 48.5511 10.3507 48.2052 11.7184L42.7861 33.7075" stroke="#231F20" stroke-width="2.09001" stroke-miterlimit="10"/>
<path d="M26.7761 35.6343L20.7805 20.7771C20.1381 19.1961 18.3098 18.5045 16.778 19.2623C15.7732 19.7561 15.1802 20.7771 15.1802 21.848C15.1802 22.1284 15.2131 22.3917 15.2955 22.6721L24.4866 54.2308V66.9306H44.2522V59.1725L48.5018 54.2308L58.8459 34.8111C59.4224 33.7402 59.34 32.4232 58.6318 31.4348C57.9894 30.5119 57.0011 30.0672 56.0128 30.0672C54.9421 30.0672 53.8716 30.5945 53.2456 31.6319L48.963 38.6983L41.1721 39.555L36.7742 48.0211" stroke="#231F20" stroke-width="2.09001" stroke-miterlimit="10"/>
<rect x="17.7117" y="66.2448" width="32.8101" height="14.1618" rx="3.71557" fill="white" stroke="#231F20" stroke-width="1.85779"/>
<rect x="21.7166" y="67.1731" width="27.8763" height="12.304" rx="2.32223" fill="#66CC99"/>
</svg>
